EMG
version=1
nRows=13
nColumns=17
inDegrees=no
endheader
time	_right_gast_med	_right_glut_max	_left_gast_med	_left_glut_max	_right_glut_med	_right_bic_fem	_right_rect_fem	_right_vast_lat	_right_vast_med	_right_tens_fasc_lat	_left_glut_med	_left_bic_fem	_left_rect_fem	_left_vast_lat	_left_vast_med	_left_tens_fasc_lat
      1.22000000	      0.00444523	     -0.02638676	     -0.00233858	     -0.06012277	      0.05408380	     -0.00017950	      0.01478712	      0.09872767	      0.31909308	      0.02605410	      0.00200282	      0.00039478	      0.00330846	      0.02172748	      0.01953083	     -0.01275155
      1.23000000	      0.04103969	     -0.05376503	      0.00736187	     -0.05431373	      0.05948504	     -0.04753469	      0.04440685	      0.03806110	      0.28400064	      0.01583611	     -0.00115838	      0.00897934	      0.00616264	      0.01843142	      0.03720928	     -0.00266156
      1.24000000	      0.07462097	     -0.03999791	      0.01279061	     -0.04359057	      0.03917199	     -0.05483444	      0.06765212	     -0.00891066	      0.20052141	     -0.00956269	     -0.00250316	      0.01154115	      0.01153809	      0.00840181	      0.09300876	      0.02054640
      1.25000000	     -0.42035234	     -0.00453611	      0.00481043	      0.01747409	      0.01835524	     -0.01914529	      0.06009702	     -0.02544158	      0.06783561	     -0.03612651	     -0.00683548	      0.01277765	      0.01495230	      0.00431510	      0.09204937	      0.04022752
      1.26000000	     -0.09849128	      0.02838659	     -0.00686522	      0.10969649	     -0.00180647	      0.02026942	      0.02709034	     -0.01386935	      0.06049453	     -0.03355487	     -0.00611012	      0.01003703	      0.01566785	      0.01845866	      0.00124424	      0.02356615
      1.27000000	      1.14260244	      0.06064630	     -0.01667549	      0.03645156	     -0.01307197	      0.05021845	     -0.03561218	     -0.01008655	      0.17148860	      0.00252256	      0.00321644	     -0.00627772	      0.01548872	      0.03792030	     -0.07125602	      0.00282897
      1.28000000	      0.99190110	      0.06338733	     -0.02030304	     -0.17089920	     -0.00823403	      0.04883340	     -0.05610409	      0.00103677	      0.21743421	      0.02313489	      0.01086243	     -0.01662780	      0.01873459	      0.02587813	     -0.06792548	      0.02609794
      1.29000000	      0.15132217	      0.01039337	     -0.00260127	     -0.16597511	     -0.00253248	      0.01531879	     -0.03405979	      0.01911910	      0.16130678	      0.02046126	      0.01365352	     -0.02017329	      0.00998620	     -0.01558849	     -0.05699908	      0.05160477
      1.30000000	     -0.36901215	     -0.00104094	      0.03596188	     -0.08478104	     -0.00387572	     -0.01969001	     -0.01867847	      0.00317201	      0.03548204	      0.00600836	      0.00759756	     -0.03611926	      0.00249276	     -0.04770220	     -0.01498304	      0.06981107
      1.31000000	     -0.13561572	      0.03296060	      0.04922389	     -0.10576756	     -0.00672521	     -0.02084676	     -0.01121574	     -0.00374301	     -0.10111711	     -0.00051807	     -0.00526188	     -0.04985531	     -0.00170331	     -0.03257616	      0.04585763	      0.06873292
      1.32000000	      0.62291545	      0.05401708	      0.04054589	     -0.02295648	     -0.01110625	     -0.00393313	      0.00427868	      0.00334009	     -0.12500896	      0.01234452	     -0.00467385	     -0.02390866	     -0.01157200	      0.00604129	      0.03483727	      0.03951087
      1.33000000	     -0.51960588	      0.05584805	      0.02339092	      0.03754509	     -0.01317607	      0.00766772	      0.02395107	      0.00808916	     -0.01300228	      0.02629862	      0.00645976	      0.04241975	     -0.01291896	      0.03474946	      0.00482662	     -0.00381414
      1.34000000	     -1.78608429	      0.03428511	      0.01023574	     -0.13545839	     -0.00888898	      0.00788374	      0.03633191	      0.00991218	      0.10910450	      0.03156785	      0.01700164	      0.09549269	      0.00856522	      0.04916519	      0.00645237	     -0.04018469
